<svg xmlns="http://www.w3.org/2000/svg" width="163.512" height="28" viewBox="0 0 163.512 28"><path fill="#0E78BC" d="M13.51 13.553l-1.624-1.193H5.623v3.435h6.606l.14.105 1.14.834v-3.18zM5.624 11.3h6.606l.14.102 1.14.836V9.056l-1.624-1.192H5.623V11.3zm7.888 14.025v-2.78l-1.624-1.192H5.623v3.973h7.888zm0-7.276l-1.624-1.192H5.623v3.434h6.606l.14.104 1.14.838V18.05zM34.345 21.214v-3.436H29.8L27.68 19.35l-.02 3.19 1.647-1.223.142-.104h4.893zm0-4.5V13.28H29.8l-2.118 1.573-.02 3.192 1.647-1.224.142-.106h4.893zm0-4.496V8.784H29.8l-2.118 1.574-.02 3.19 1.647-1.224.142-.105h4.893v-.002zM27.682 5.86l-.02 3.194 1.647-1.226.142-.107h4.893V4.288h-4.547L27.682 5.86zm6.663 19.442v-3.027H29.8l-2.118 1.573-.01 1.454h6.673z"/><path fill="#3B9CD4" d="M7.697 21.353l-.003 3.973H6.466l.003-3.973h1.227zm0-4.496v3.435H6.47v-3.435h1.227zm0-4.498v3.434H6.47V12.36h1.227zm0-4.496V11.3H6.47V7.864h1.227zM30.836 22.274V25.3H29.61v-2.887l.188-.14h1.038zm0-4.496v3.436H29.61v-3.296l.188-.14h1.038zm0-4.497v3.434H29.61v-3.292l.188-.14h1.038zm0-4.496v3.434H29.61V8.924l.188-.14h1.038zm0-4.497v3.435H29.61V4.427l.188-.14h1.038z"/><path fill="#0761AC" d="M29.58 22.437v2.865h-1.907l.01-1.454 1.898-1.41zm0-4.496v3.273l-1.917 1.328.02-3.19 1.898-1.41zm0-4.496v3.27l-1.917 1.33.02-3.19 1.898-1.41zm0-4.5v3.274l-1.917 1.33.02-3.19 1.898-1.413zm0-4.495v3.27l-1.917 1.334.02-3.194 1.898-1.41zM11.9 11.3V7.875l1.61 1.18v3.182l-1.61-.94zm0 4.494v-3.422l1.61 1.18v3.182l-1.61-.94zm0 4.498v-3.42l1.61 1.177v3.184l-1.61-.942zm0 5.033v-3.958l1.61 1.18v2.778H11.9z"/><path fill="#EC2F36" d="M23.983 21.423v-3.436h-9.417v3.436h9.417zm0-7.93h-9.417v3.436h9.417V13.49zm0-4.5h-9.417v3.436h9.417V8.993zm0-4.495h-9.417v3.435h9.417V4.498zm-9.417-1.063h9.417V0h-9.417v3.435zm9.417 21.867v-2.814h-9.417v2.814h9.417z"/><path fill="#EF454F" d="M17.028 22.487V25.3H15.8v-2.813h1.228zm0-4.5v3.436H15.8v-3.436h1.228zm0-4.495v3.437H15.8V13.49h1.228zm0-4.498v3.435H15.8V8.993h1.228zm0-4.496v3.435H15.8V4.498h1.228zm0-4.498v3.435H15.8V0h1.228z"/><path fill="#B92831" d="M26.594 19.48l-1.548-1.14v3.184l.003.002 1.553 1.14-.01-3.187zm0-4.5l-1.548-1.135v3.183h.003l1.553 1.142-.01-3.19zm0-4.496L25.046 9.35v3.18l.003.003 1.553 1.14-.01-3.19zm.026-3.834l-.03.02.004-.683-1.548-1.135v3.182l.003.003 1.553 1.14.017-2.527zm-.006 18.652l-.02-1.327-1.548-1.136V25.3h1.568zM25.046.354v3.183l.003.002 1.553 1.14.02-3.168L25.046.354z"/><path fill="#EC2F36" d="M0 26.75l3.47-1.355h.916V26.4h30.96v-1.006h.92l3.472 1.356v.712H0v-.71z"/><path d="M48.035 22.937V4.483h2.835v7.68h3.33v-7.68h2.834v18.453H54.2V14.87h-3.33v8.066h-2.835zM59.314 18.376c-.017-.318-.026-.64-.026-.966v-.91c0-.425.01-.86.026-1.31s.043-.88.078-1.285c.035-.407.078-.787.13-1.14.05-.356.12-.642.207-.857.25-.674.692-1.224 1.326-1.647.635-.423 1.465-.635 2.492-.635.713 0 1.315.093 1.806.278.49.185.896.438 1.218.757.32.32.556.69.704 1.114.148.422.244.88.288 1.373.07.51.107 1.075.116 1.696.01.622.012 1.187.012 1.697v.698c0 .406-.012.812-.038 1.218-.026.406-.057.803-.09 1.19-.087.727-.28 1.32-.573 1.782-.295.46-.642.814-1.04 1.06-.4.248-.834.414-1.298.5s-.92.13-1.362.13c-.622 0-1.157-.085-1.606-.253a3.512 3.512 0 0 1-1.14-.674c-.31-.28-.55-.6-.717-.964a4.446 4.446 0 0 1-.356-1.152 12.65 12.65 0 0 1-.09-.783c-.027-.29-.048-.594-.066-.914zm2.81-1.427c0 .47.004.924.014 1.364.01.44.047.793.116 1.06.087.298.227.545.422.742.194.197.477.295.848.295.284 0 .53-.08.73-.242.204-.163.34-.368.41-.615.016-.07.04-.203.07-.405.03-.2.054-.446.07-.737.018-.29.03-.6.04-.936.01-.333.013-.667.013-1 0-.616-.01-1.212-.026-1.79-.016-.577-.063-1.01-.142-1.302a1.15 1.15 0 0 0-.18-.473c-.2-.386-.527-.58-.984-.58-.423 0-.738.16-.946.476a2.92 2.92 0 0 0-.278.68c-.064.24-.11.516-.136.832-.026.317-.04.67-.04 1.065v1.566zM69.673 22.937V9.832h3.805c1.516 0 2.635.325 3.36.975.722.65 1.084 1.586 1.084 2.806 0 .503-.113.962-.34 1.376-.227.415-.58.754-1.06 1.018l.026.038c.586.245.982.615 1.19 1.112s.314 1.048.314 1.654c0 1.423-.384 2.465-1.15 3.13-.767.662-1.935.993-3.503.993h-3.727zm2.89-7.926h.776c.62 0 1.06-.11 1.313-.333.254-.223.382-.53.382-.92s-.11-.683-.33-.877c-.22-.196-.607-.31-1.16-.34h-.983v2.47zm0 5.22h.983c.37 0 .662-.04.873-.124.21-.083.38-.2.505-.354s.205-.327.24-.522c.034-.194.05-.412.05-.65 0-.44-.122-.786-.368-1.04-.247-.252-.68-.378-1.3-.378h-.985v3.068zM79.852 18.376c-.017-.318-.026-.64-.026-.966v-.91c0-.425.01-.86.026-1.31.017-.45.043-.88.078-1.285.035-.407.078-.787.13-1.14.05-.356.12-.642.206-.857.25-.674.693-1.224 1.327-1.647.635-.423 1.466-.635 2.493-.635.713 0 1.314.093 1.806.278.49.185.897.438 1.218.757.322.32.557.69.704 1.114.148.422.244.88.288 1.373.07.51.107 1.075.116 1.696s.013 1.187.013 1.697v.698c0 .406-.012.812-.038 1.218s-.056.803-.09 1.19c-.087.727-.278 1.32-.573 1.782-.296.46-.644.814-1.043 1.06-.4.248-.833.414-1.297.5s-.92.13-1.362.13c-.622 0-1.157-.085-1.606-.253a3.528 3.528 0 0 1-1.14-.674c-.31-.28-.55-.6-.718-.964a4.446 4.446 0 0 1-.356-1.152 21.356 21.356 0 0 1-.156-1.698zm2.81-1.427c0 .47.004.924.013 1.364s.047.793.116 1.06c.087.298.228.545.422.742.194.197.477.295.85.295.283 0 .528-.08.73-.242.203-.163.338-.368.408-.615a8.002 8.002 0 0 0 .14-1.142 37.05 37.05 0 0 0 .053-1.937c0-.616-.008-1.212-.025-1.79-.017-.577-.064-1.01-.143-1.302a1.137 1.137 0 0 0-.18-.473c-.2-.386-.528-.58-.985-.58-.423 0-.74.16-.946.476-.12.213-.213.44-.28.68-.063.24-.11.516-.135.832-.027.317-.04.67-.04 1.065v1.566zM89.954 16.467c0-.422.01-.856.026-1.304.017-.45.043-.874.08-1.278.034-.404.077-.783.13-1.136.05-.354.12-.638.207-.853a3.564 3.564 0 0 1 1.32-1.64c.61-.422 1.433-.632 2.464-.632 1.338 0 2.32.364 2.95 1.095.628.73.943 1.733.943 3.01-.463.053-.94.105-1.432.16-.49.056-.968.117-1.43.185 0-.61-.1-1.054-.303-1.33a.95.95 0 0 0-.805-.413c-.524 0-.885.26-1.083.776-.052.17-.1.518-.142 1.043a23.077 23.077 0 0 0-.065 1.82v.942c0 .5.004.99.013 1.47.008.48.056.842.142 1.09.086.28.216.5.392.667s.424.247.74.247c.74 0 1.108-.56 1.108-1.68.48.084.96.155 1.444.21.483.055.965.125 1.443.21-.018 1.256-.366 2.23-1.048 2.925-.68.694-1.68 1.04-3 1.04-.606 0-1.13-.068-1.573-.206a3.444 3.444 0 0 1-1.132-.585 3.195 3.195 0 0 1-.75-.844 3.632 3.632 0 0 1-.41-.987 6.393 6.393 0 0 1-.13-.807 11.86 11.86 0 0 1-.063-1.026c-.01-.363-.02-.735-.028-1.117-.004-.38-.008-.734-.008-1.053zM99.453 12.512V9.806h8.17v2.706h-2.653v10.424h-2.888V12.512h-2.63zM109.406 28V9.806h2.836v.984l.078.052c.25-.44.562-.75.94-.926s.812-.265 1.302-.265c.346 0 .688.048 1.026.143.338.095.645.267.92.517.273.25.51.595.71 1.034.197.44.335 1.004.41 1.693.035.388.062.872.08 1.454.016.58.023 1.175.023 1.778 0 .778-.02 1.57-.06 2.374s-.127 1.466-.255 1.984c-.067.32-.167.625-.298.914-.13.29-.31.552-.533.786-.224.233-.51.42-.857.558-.346.138-.76.207-1.243.207a3.33 3.33 0 0 1-1.12-.2 2.218 2.218 0 0 1-.992-.718h-.078V28h-2.888zm2.863-9.86c0 .3.003.58.012.84.008.258.048.455.116.593.197.49.575.735 1.134.735.472 0 .807-.202 1.005-.606.12-.284.202-.725.245-1.323.043-.6.064-1.32.064-2.162 0-.79-.018-1.46-.052-2.008s-.112-.936-.23-1.168c-.147-.404-.49-.606-1.032-.606-.42 0-.736.146-.947.44-.21.29-.315.665-.315 1.122v4.142zM119.56 18.376c-.018-.318-.026-.64-.026-.966v-.91c0-.425.01-.86.026-1.31.017-.45.043-.88.077-1.285.035-.407.078-.787.13-1.14.052-.356.12-.642.207-.857.25-.674.693-1.224 1.327-1.647.636-.423 1.467-.635 2.493-.635.713 0 1.315.093 1.807.278.49.185.896.438 1.218.757.32.32.557.69.704 1.114.147.422.243.88.287 1.373.068.51.106 1.075.115 1.696s.013 1.187.013 1.697v.698c0 .406-.013.812-.04 1.218-.024.406-.055.803-.09 1.19-.087.727-.277 1.32-.572 1.782-.296.46-.643.814-1.042 1.06-.4.248-.833.414-1.297.5-.465.086-.92.13-1.362.13-.62 0-1.156-.085-1.605-.253a3.528 3.528 0 0 1-1.14-.674c-.31-.28-.55-.6-.718-.964a4.446 4.446 0 0 1-.356-1.152 13.412 13.412 0 0 1-.09-.783c-.028-.29-.05-.594-.066-.914zm2.81-1.427c0 .47.003.924.012 1.364.01.44.048.793.116 1.06.087.298.228.545.422.742.193.197.477.295.85.295.283 0 .527-.08.73-.242a1.19 1.19 0 0 0 .408-.615 8.002 8.002 0 0 0 .14-1.142 33.345 33.345 0 0 0 .052-1.937c0-.616-.008-1.212-.024-1.79-.018-.577-.064-1.01-.144-1.302a1.136 1.136 0 0 0-.18-.473c-.2-.386-.527-.58-.984-.58-.424 0-.738.16-.946.476-.12.213-.213.44-.278.68a4.86 4.86 0 0 0-.136.832c-.026.317-.038.67-.038 1.065v1.566zM129.867 22.937V9.832h2.837v7.886h.05l3.2-7.886h2.887v13.104h-2.886v-7.588h-.053l-3.224 7.588h-2.81zm.737-18.22h2.1c.017.198.074.398.173.602.1.202.222.39.368.57.146.176.317.32.516.432.198.112.418.168.658.168.268 0 .5-.056.704-.168.202-.112.374-.256.517-.433.14-.18.25-.368.327-.57.077-.205.116-.405.116-.604h2.098c-.033.372-.13.772-.29 1.205-.16.432-.394.83-.704 1.192a3.94 3.94 0 0 1-1.138.907c-.45.24-.992.362-1.63.362-.69 0-1.27-.122-1.745-.363a3.634 3.634 0 0 1-1.162-.908 3.613 3.613 0 0 1-.665-1.19 4.592 4.592 0 0 1-.24-1.206zM141.21 16.733v-2.707h7.383v2.707h-7.382z"/><path fill="#EC2F36" d="M150.885 22.937V4.483h2.758l2.02 5.245 1.465 4h.13l1.49-4.103 1.98-5.142h2.784v18.453h-2.89v-10.63h-.103l-1.166 3.288-1.31 3.315h-1.72L155 15.49l-1.14-3.237h-.142v10.684h-2.835z"/></svg>